<?xml version="1.0" encoding="utf-8"?>
<!-- Generator: Adobe Illustrator 23.0.3, SVG Export Plug-In . SVG Version: 6.00 Build 0)  -->
<svg version="1.1" id="Layer_1" xmlns="http://www.w3.org/2000/svg" xmlns:xlink="http://www.w3.org/1999/xlink" x="0px" y="0px"
	 viewBox="0 0 150 150" style="enable-background:new 0 0 150 150;" xml:space="preserve">
<style type="text/css">
	.st0{fill:none;stroke:#000000;stroke-width:5;stroke-miterlimit:10;}
	.st1{fill:none;stroke:#000000;stroke-width:5;stroke-linecap:round;stroke-miterlimit:10;}
	.st2{fill:url(#SVGID_1_);}
	.st3{fill:url(#SVGID_2_);}
	.st4{fill:none;stroke:#000000;stroke-width:5;stroke-linejoin:round;stroke-miterlimit:10;}
	.st5{fill:none;stroke:#000000;stroke-width:5;stroke-linecap:round;stroke-linejoin:round;stroke-miterlimit:10;}
	.st6{fill:url(#SVGID_3_);}
	.st7{fill:url(#SVGID_4_);}
	.st8{fill:url(#SVGID_5_);}
	.st9{fill:url(#SVGID_6_);}
	.st10{fill:url(#SVGID_7_);}
	.st11{fill:url(#SVGID_8_);}
	.st12{fill:url(#SVGID_9_);}
</style>
<linearGradient id="SVGID_1_" gradientUnits="userSpaceOnUse" x1="10.8059" y1="75" x2="140.4885" y2="75">
	<stop  offset="0" style="stop-color:#FF1BC6"/>
	<stop  offset="1" style="stop-color:#0066A6"/>
</linearGradient>
<path class="st2" d="M114,60.6c-2.5,0-4.8,0.3-7.1,1l-3.6-9.7h0.4c4.2,0,7.7-3.4,7.7-7.7s-3.4-7.7-7.7-7.7h-8.2
	c-1.4,0-2.5,1.1-2.5,2.5s1.1,2.5,2.5,2.5h8.2c1.5,0,2.7,1.2,2.7,2.7c0,1.5-1.2,2.7-2.7,2.7H55.4l-1.5-2.8h7.3c1.4,0,2.5-1.1,2.5-2.5
	s-1.1-2.5-2.5-2.5H47.9l-2.5-1.9c-1.1-0.8-2.7-0.7-3.5,0.4c-0.8,1.1-0.7,2.7,0.4,3.5l3.2,2.5c0.4,0.3,1,0.5,1.5,0.5h1.5
	c0,0.4,0.1,0.9,0.3,1.3l2.2,4.1L45.7,62c-2.7-0.9-5.5-1.4-8.5-1.4c-14.6,0-26.4,11.9-26.4,26.4c0,14.6,11.9,26.4,26.4,26.4
	c13.4,0,24.5-10.1,26.2-23.1h2.8c0.9,3.5,3.6,6.2,7,7.1v3c0,1.4,1.1,2.5,2.5,2.5h7.3c1.4,0,2.5-1.1,2.5-2.5s-1.1-2.5-2.5-2.5h-4.8
	v-0.5c4.2-1.1,7.3-4.9,7.3-9.5c0-2.5-1-4.8-2.6-6.6l16.2-26.5l3.1,8.3c-8.7,4.3-14.7,13.3-14.7,23.7c0,14.6,11.9,26.4,26.4,26.4
	s26.4-11.9,26.4-26.4C140.5,72.5,128.6,60.6,114,60.6z M73.1,78.7L71.6,76h1.7v2.6C73.2,78.7,73.2,78.7,73.1,78.7z M78.3,78.7v-5.1
	c0-1.4-1.1-2.5-2.5-2.5h-6.9L58.1,51.9h37.2l-16.5,27C78.6,78.8,78.5,78.7,78.3,78.7z M54.2,55l14.6,26.2c-1.1,1.2-2,2.6-2.4,4.2
	h-2.7c-0.6-9.2-5.8-17.1-13.4-21.4L54.2,55z M58.6,85.4H41l7.2-16.7C54.1,72.2,58.1,78.3,58.6,85.4z M37.2,108.5
	c-11.8,0-21.4-9.6-21.4-21.4c0-11.8,9.6-21.4,21.4-21.4c2.3,0,4.4,0.4,6.5,1L35,87c-0.3,0.8-0.3,1.7,0.2,2.4
	c0.5,0.7,1.2,1.1,2.1,1.1h21.1C56.8,100.7,47.9,108.5,37.2,108.5z M78.3,92.2v-5c0-1.4-1.1-2.5-2.5-2.5s-2.5,1.1-2.5,2.5v5
	c-1.4-0.8-2.3-2.3-2.3-4.1c0-2.6,2.2-4.8,4.8-4.8c0.9,0,1.8,0.3,2.5,0.7c0.1,0,0.1,0.1,0.2,0.1c0,0,0.1,0,0.1,0c1.2,0.9,2,2.3,2,3.9
	C80.6,89.8,79.6,91.3,78.3,92.2z M114,108.5c-11.8,0-21.4-9.6-21.4-21.4c0-8.2,4.6-15.4,11.4-19l7.7,20.7c0.4,1,1.3,1.6,2.3,1.6
	c0.3,0,0.6-0.1,0.9-0.2c1.3-0.5,2-1.9,1.5-3.2l-7.7-20.8c1.7-0.4,3.5-0.7,5.3-0.7c11.8,0,21.4,9.6,21.4,21.4
	C135.5,98.9,125.9,108.5,114,108.5z"/>
</svg>
