<?xml version="1.0" encoding="UTF-8"?>
<!DOCTYPE svg PUBLIC "-//W3C//DTD SVG 1.1//EN" "http://www.w3.org/Graphics/SVG/1.1/DTD/svg11.dtd">
<!-- Creator: CorelDRAW -->
<svg xmlns="http://www.w3.org/2000/svg" xml:space="preserve" width="7.33333in" height="7.33333in" style="shape-rendering:geometricPrecision; text-rendering:geometricPrecision; image-rendering:optimizeQuality; fill-rule:evenodd; clip-rule:evenodd"
viewBox="0 0 7.33333 7.33333"
 xmlns:xlink="http://www.w3.org/1999/xlink">
 <defs>
  <style type="text/css">
   <![CDATA[
    .fil4 {fill:url(#id0)}
    .fil2 {fill:url(#id1);fill-rule:nonzero}
    .fil1 {fill:url(#id2);fill-rule:nonzero}
    .fil3 {fill:url(#id3);fill-rule:nonzero}
    .fil0 {fill:url(#id4);fill-rule:nonzero}
   ]]>
  </style>
  <linearGradient id="id0" gradientUnits="userSpaceOnUse" x1="-3.93701e-006" y1="3.66667" x2="7.33333" y2="3.66667">
   <stop offset="0" style="stop-color:#E4877C"/>
   <stop offset="1" style="stop-color:#B03686"/>
  </linearGradient>
  <linearGradient id="id1" gradientUnits="userSpaceOnUse" xlink:href="#id0" x1="1.49813" y1="3.27456" x2="2.20728" y2="3.27456">
  </linearGradient>
  <linearGradient id="id2" gradientUnits="userSpaceOnUse" xlink:href="#id0" x1="5.12605" y1="3.27456" x2="5.8352" y2="3.27456">
  </linearGradient>
  <linearGradient id="id3" gradientUnits="userSpaceOnUse" xlink:href="#id0" x1="1.49922" y1="2.05302" x2="5.83411" y2="2.05302">
  </linearGradient>
  <linearGradient id="id4" gradientUnits="userSpaceOnUse" xlink:href="#id0" x1="1.10667" y1="3.66667" x2="6.22667" y2="3.66667">
  </linearGradient>
 </defs>
 <g id="Layer_x0020_1">
  <metadata id="CorelCorpID_0Corel-Layer"/>
  <path class="fil0" d="M1.18667 1.10667l4.96 0 0.08 0 0 0.08 0 4.96 0 0.08 -0.08 0 -4.96 0 -0.08 0 0 -0.08 0 -4.96 0 -0.08 0.08 0zm4.88 0.16l-4.8 0 0 4.8 4.8 0 0 -4.8z"/>
  <path class="fil1" d="M5.20605 2.92506l0.549154 0c0.0441811,0 0.08,0.0358189 0.08,0.08l0 0.539008c0,0.0441811 -0.0358189,0.08 -0.08,0.08l-0.549154 0c-0.0441811,0 -0.08,-0.0358189 -0.08,-0.08l0 -0.539008c0,-0.0441811 0.0358189,-0.08 0.08,-0.08zm0.469154 0.16l-0.389154 0 0 0.379008 0.389154 0 0 -0.379008z"/>
  <path class="fil1" d="M4.29907 2.92506l0.549154 0c0.0441811,0 0.08,0.0358189 0.08,0.08l0 0.539008c0,0.0441811 -0.0358189,0.08 -0.08,0.08l-0.549154 0c-0.0441811,0 -0.08,-0.0358189 -0.08,-0.08l0 -0.539008c0,-0.0441811 0.0358189,-0.08 0.08,-0.08zm0.469154 0.16l-0.389154 0 0 0.379008 0.389154 0 0 -0.379008z"/>
  <path class="fil1" d="M3.39209 2.92506l0.549154 0c0.0441811,0 0.08,0.0358189 0.08,0.08l0 0.539008c0,0.0441811 -0.0358189,0.08 -0.08,0.08l-0.549154 0c-0.0441811,0 -0.08,-0.0358189 -0.08,-0.08l0 -0.539008c0,-0.0441811 0.0358189,-0.08 0.08,-0.08zm0.469154 0.16l-0.389154 0 0 0.379008 0.389154 0 0 -0.379008z"/>
  <path class="fil1" d="M2.48511 2.92506l0.549154 0c0.0441811,0 0.08,0.0358189 0.08,0.08l0 0.539008c0,0.0441811 -0.0358189,0.08 -0.08,0.08l-0.549154 0c-0.0441811,0 -0.08,-0.0358189 -0.08,-0.08l0 -0.539008c0,-0.0441811 0.0358189,-0.08 0.08,-0.08zm0.469154 0.16l-0.389154 0 0 0.379008 0.389154 0 0 -0.379008z"/>
  <path class="fil2" d="M1.57813 2.92506l0.54915 0c0.0441811,0 0.08,0.0358189 0.08,0.08l0 0.539008c0,0.0441811 -0.0358189,0.08 -0.08,0.08l-0.54915 0c-0.0441811,0 -0.08,-0.0358189 -0.08,-0.08l0 -0.539008c0,-0.0441811 0.0358189,-0.08 0.08,-0.08zm0.46915 0.16l-0.38915 0 0 0.379008 0.38915 0 0 -0.379008z"/>
  <path class="fil2" d="M1.57813 2.92506l0.54915 0c0.0441811,0 0.08,0.0358189 0.08,0.08l0 0.539008c0,0.0441811 -0.0358189,0.08 -0.08,0.08l-0.54915 0c-0.0441811,0 -0.08,-0.0358189 -0.08,-0.08l0 -0.539008c0,-0.0441811 0.0358189,-0.08 0.08,-0.08zm0.46915 0.16l-0.38915 0 0 0.379008 0.38915 0 0 -0.379008z"/>
  <path class="fil1" d="M5.20605 3.98648l0.549154 0c0.0441811,0 0.08,0.0358189 0.08,0.08l0 0.539008c0,0.0441811 -0.0358189,0.08 -0.08,0.08l-0.549154 0c-0.0441811,0 -0.08,-0.0358189 -0.08,-0.08l0 -0.539008c0,-0.0441811 0.0358189,-0.08 0.08,-0.08zm0.469154 0.16l-0.389154 0 0 0.379008 0.389154 0 0 -0.379008z"/>
  <path class="fil1" d="M4.29907 3.98648l0.549154 0c0.0441811,0 0.08,0.0358189 0.08,0.08l0 0.539008c0,0.0441811 -0.0358189,0.08 -0.08,0.08l-0.549154 0c-0.0441811,0 -0.08,-0.0358189 -0.08,-0.08l0 -0.539008c0,-0.0441811 0.0358189,-0.08 0.08,-0.08zm0.469154 0.16l-0.389154 0 0 0.379008 0.389154 0 0 -0.379008z"/>
  <path class="fil1" d="M3.39209 3.98648l0.549154 0c0.0441811,0 0.08,0.0358189 0.08,0.08l0 0.539008c0,0.0441811 -0.0358189,0.08 -0.08,0.08l-0.549154 0c-0.0441811,0 -0.08,-0.0358189 -0.08,-0.08l0 -0.539008c0,-0.0441811 0.0358189,-0.08 0.08,-0.08zm0.469154 0.16l-0.389154 0 0 0.379008 0.389154 0 0 -0.379008z"/>
  <path class="fil1" d="M2.48511 3.98648l0.549154 0c0.0441811,0 0.08,0.0358189 0.08,0.08l0 0.539008c0,0.0441811 -0.0358189,0.08 -0.08,0.08l-0.549154 0c-0.0441811,0 -0.08,-0.0358189 -0.08,-0.08l0 -0.539008c0,-0.0441811 0.0358189,-0.08 0.08,-0.08zm0.469154 0.16l-0.389154 0 0 0.379008 0.389154 0 0 -0.379008z"/>
  <path class="fil2" d="M1.57813 3.98648l0.54915 0c0.0441811,0 0.08,0.0358189 0.08,0.08l0 0.539008c0,0.0441811 -0.0358189,0.08 -0.08,0.08l-0.54915 0c-0.0441811,0 -0.08,-0.0358189 -0.08,-0.08l0 -0.539008c0,-0.0441811 0.0358189,-0.08 0.08,-0.08zm0.46915 0.16l-0.38915 0 0 0.379008 0.38915 0 0 -0.379008z"/>
  <path class="fil2" d="M1.57813 3.98648l0.54915 0c0.0441811,0 0.08,0.0358189 0.08,0.08l0 0.539008c0,0.0441811 -0.0358189,0.08 -0.08,0.08l-0.54915 0c-0.0441811,0 -0.08,-0.0358189 -0.08,-0.08l0 -0.539008c0,-0.0441811 0.0358189,-0.08 0.08,-0.08zm0.46915 0.16l-0.38915 0 0 0.379008 0.38915 0 0 -0.379008z"/>
  <path class="fil1" d="M5.20605 5.04791l0.549154 0c0.0441811,0 0.08,0.0358189 0.08,0.08l0 0.539008c0,0.0441811 -0.0358189,0.08 -0.08,0.08l-0.549154 0c-0.0441811,0 -0.08,-0.0358189 -0.08,-0.08l0 -0.539008c0,-0.0441811 0.0358189,-0.08 0.08,-0.08zm0.469154 0.16l-0.389154 0 0 0.379008 0.389154 0 0 -0.379008z"/>
  <path class="fil1" d="M4.29907 5.04791l0.549154 0c0.0441811,0 0.08,0.0358189 0.08,0.08l0 0.539008c0,0.0441811 -0.0358189,0.08 -0.08,0.08l-0.549154 0c-0.0441811,0 -0.08,-0.0358189 -0.08,-0.08l0 -0.539008c0,-0.0441811 0.0358189,-0.08 0.08,-0.08zm0.469154 0.16l-0.389154 0 0 0.379008 0.389154 0 0 -0.379008z"/>
  <path class="fil1" d="M3.39209 5.04791l0.549154 0c0.0441811,0 0.08,0.0358189 0.08,0.08l0 0.539008c0,0.0441811 -0.0358189,0.08 -0.08,0.08l-0.549154 0c-0.0441811,0 -0.08,-0.0358189 -0.08,-0.08l0 -0.539008c0,-0.0441811 0.0358189,-0.08 0.08,-0.08zm0.469154 0.16l-0.389154 0 0 0.379008 0.389154 0 0 -0.379008z"/>
  <path class="fil1" d="M2.48511 5.04791l0.549154 0c0.0441811,0 0.08,0.0358189 0.08,0.08l0 0.539008c0,0.0441811 -0.0358189,0.08 -0.08,0.08l-0.549154 0c-0.0441811,0 -0.08,-0.0358189 -0.08,-0.08l0 -0.539008c0,-0.0441811 0.0358189,-0.08 0.08,-0.08zm0.469154 0.16l-0.389154 0 0 0.379008 0.389154 0 0 -0.379008z"/>
  <path class="fil2" d="M1.57813 5.04791l0.54915 0c0.0441811,0 0.08,0.0358189 0.08,0.08l0 0.539008c0,0.0441811 -0.0358189,0.08 -0.08,0.08l-0.54915 0c-0.0441811,0 -0.08,-0.0358189 -0.08,-0.08l0 -0.539008c0,-0.0441811 0.0358189,-0.08 0.08,-0.08zm0.46915 0.16l-0.38915 0 0 0.379008 0.38915 0 0 -0.379008z"/>
  <path class="fil2" d="M1.57813 5.04791l0.54915 0c0.0441811,0 0.08,0.0358189 0.08,0.08l0 0.539008c0,0.0441811 -0.0358189,0.08 -0.08,0.08l-0.54915 0c-0.0441811,0 -0.08,-0.0358189 -0.08,-0.08l0 -0.539008c0,-0.0441811 0.0358189,-0.08 0.08,-0.08zm0.46915 0.16l-0.38915 0 0 0.379008 0.38915 0 0 -0.379008z"/>
  <path class="fil1" d="M5.20605 5.04791l0.549154 0c0.0441811,0 0.08,0.0358189 0.08,0.08l0 0.539008c0,0.0441811 -0.0358189,0.08 -0.08,0.08l-0.549154 0c-0.0441811,0 -0.08,-0.0358189 -0.08,-0.08l0 -0.539008c0,-0.0441811 0.0358189,-0.08 0.08,-0.08zm0.469154 0.16l-0.389154 0 0 0.379008 0.389154 0 0 -0.379008z"/>
  <path class="fil1" d="M4.29907 5.04791l0.549154 0c0.0441811,0 0.08,0.0358189 0.08,0.08l0 0.539008c0,0.0441811 -0.0358189,0.08 -0.08,0.08l-0.549154 0c-0.0441811,0 -0.08,-0.0358189 -0.08,-0.08l0 -0.539008c0,-0.0441811 0.0358189,-0.08 0.08,-0.08zm0.469154 0.16l-0.389154 0 0 0.379008 0.389154 0 0 -0.379008z"/>
  <path class="fil1" d="M3.39209 5.04791l0.549154 0c0.0441811,0 0.08,0.0358189 0.08,0.08l0 0.539008c0,0.0441811 -0.0358189,0.08 -0.08,0.08l-0.549154 0c-0.0441811,0 -0.08,-0.0358189 -0.08,-0.08l0 -0.539008c0,-0.0441811 0.0358189,-0.08 0.08,-0.08zm0.469154 0.16l-0.389154 0 0 0.379008 0.389154 0 0 -0.379008z"/>
  <path class="fil1" d="M2.48511 5.04791l0.549154 0c0.0441811,0 0.08,0.0358189 0.08,0.08l0 0.539008c0,0.0441811 -0.0358189,0.08 -0.08,0.08l-0.549154 0c-0.0441811,0 -0.08,-0.0358189 -0.08,-0.08l0 -0.539008c0,-0.0441811 0.0358189,-0.08 0.08,-0.08zm0.469154 0.16l-0.389154 0 0 0.379008 0.389154 0 0 -0.379008z"/>
  <path class="fil2" d="M1.57813 5.04791l0.54915 0c0.0441811,0 0.08,0.0358189 0.08,0.08l0 0.539008c0,0.0441811 -0.0358189,0.08 -0.08,0.08l-0.54915 0c-0.0441811,0 -0.08,-0.0358189 -0.08,-0.08l0 -0.539008c0,-0.0441811 0.0358189,-0.08 0.08,-0.08zm0.46915 0.16l-0.38915 0 0 0.379008 0.38915 0 0 -0.379008z"/>
  <path class="fil2" d="M1.57813 5.04791l0.54915 0c0.0441811,0 0.08,0.0358189 0.08,0.08l0 0.539008c0,0.0441811 -0.0358189,0.08 -0.08,0.08l-0.54915 0c-0.0441811,0 -0.08,-0.0358189 -0.08,-0.08l0 -0.539008c0,-0.0441811 0.0358189,-0.08 0.08,-0.08zm0.46915 0.16l-0.38915 0 0 0.379008 0.38915 0 0 -0.379008z"/>
  <path class="fil3" d="M1.57922 1.50072l4.17489 0c0.0441811,0 0.08,0.0358189 0.08,0.08l0 0.944583c0,0.0441811 -0.0358189,0.08 -0.08,0.08l-4.17489 0c-0.0441811,0 -0.08,-0.0358189 -0.08,-0.08l0 -0.944583c0,-0.0441811 0.0358189,-0.08 0.08,-0.08zm4.09489 0.16l-4.01489 0 0 0.784583 4.01489 0 0 -0.784583z"/>
  <path class="fil4" d="M1.28486 0l4.76361 0c0.706677,0 1.28486,0.578185 1.28486,1.28486l0 4.76361c0,0.706677 -0.578185,1.28486 -1.28486,1.28486l-4.76361 0c-0.706677,0 -1.28486,-0.578185 -1.28486,-1.28486l0 -4.76361c0,-0.706677 0.578185,-1.28486 1.28486,-1.28486zm3.93701e-006 0.321209l4.76361 0c0.530008,0 0.96365,0.433642 0.96365,0.96365l0 4.76361c0,0.530008 -0.433642,0.96365 -0.96365,0.96365l-4.76361 0c-0.530008,0 -0.96365,-0.433642 -0.96365,-0.96365l0 -4.76361c0,-0.530008 0.433642,-0.96365 0.96365,-0.96365z"/>
 </g>
</svg>
